<?xml version="1.0" encoding="utf-8"?><svg xmlns="http://www.w3.org/2000/svg" xmlns:xlink="http://www.w3.org/1999/xlink"><symbol viewBox="0 0 80 8" id="arrow" xmlns="http://www.w3.org/2000/svg"><path d="M79.354 4.354a.5.5 0 000-.708L76.172.464a.5.5 0 10-.707.708L78.293 4l-2.829 2.828a.5.5 0 10.708.708l3.182-3.182zM0 4.5h79v-1H0v1z"/></symbol><symbol viewBox="0 0 79 8" id="arrow-1" xmlns="http://www.w3.org/2000/svg"><path fill-rule="evenodd" clip-rule="evenodd" d="M75.692.464l3.163 3.161a.497.497 0 010 .703L75.692 7.49a.497.497 0 01-.702-.703l2.314-2.313H0V3.48h77.304L74.99 1.166a.497.497 0 01.703-.702z"/></symbol><symbol viewBox="0 0 26 4" id="arrow-2" xmlns="http://www.w3.org/2000/svg"><path fill-rule="evenodd" clip-rule="evenodd" d="M23.586.232l1.59 1.591a.25.25 0 010 .354l-1.59 1.59a.25.25 0 01-.354-.353l1.164-1.164H0v-.5h24.396L23.232.586a.25.25 0 01.354-.354z"/></symbol><symbol viewBox="0 0 39 9" id="arrow-3" xmlns="http://www.w3.org/2000/svg"><path fill-rule="evenodd" clip-rule="evenodd" d="M34.977.973l3.182 3.182a.5.5 0 010 .707l-3.182 3.182a.5.5 0 11-.707-.707l2.328-2.329H.148v-1h36.45L34.27 1.68a.5.5 0 11.707-.707z"/></symbol><symbol viewBox="0 0 8 23" id="arrow-4" xmlns="http://www.w3.org/2000/svg"><path fill-rule="evenodd" clip-rule="evenodd" d="M7.538 19.742l-3.114 3.115a.49.49 0 01-.692 0L.618 19.742a.49.49 0 01.692-.692l2.279 2.28V0h.978v21.33l2.28-2.28a.49.49 0 11.691.692z"/></symbol><symbol viewBox="0 0 17 8" id="arrow-5" xmlns="http://www.w3.org/2000/svg"><path fill-rule="evenodd" clip-rule="evenodd" d="M3.233 7.54L.143 4.449a.486.486 0 010-.687L3.232.67a.486.486 0 11.687.687L1.658 3.62H17v.97H1.658L3.92 6.854a.486.486 0 11-.687.687z"/></symbol><symbol viewBox="0 0 11 8" id="arrow-6" xmlns="http://www.w3.org/2000/svg"><path fill-rule="evenodd" clip-rule="evenodd" d="M7.816.458l3.044 3.044a.478.478 0 010 .676L7.816 7.222a.478.478 0 11-.676-.677l2.227-2.227H0v-.956h9.367L7.14 1.134a.478.478 0 01.676-.676z"/></symbol><symbol viewBox="0 0 20 20" id="back" xmlns="http://www.w3.org/2000/svg"><path d="M13.343 2.916a.597.597 0 010 .835L7.25 10l6.092 6.247a.597.597 0 01-.187.963.57.57 0 01-.628-.128L6.05 10.436a.625.625 0 010-.872l6.478-6.647a.569.569 0 01.815 0z"/></symbol><symbol viewBox="0 0 20 20" id="bag" xmlns="http://www.w3.org/2000/svg"><path d="M13.89 6.667v-1.64a3.89 3.89 0 00-7.778 0v3.89a.556.556 0 001.11 0v-1.14h4.445v-1.11H7.223v-1.64a2.778 2.778 0 115.555 0V8.89a.555.555 0 101.111 0V7.778h2.778v10H3.334v-10H5V6.667H2.223v11.16a1.061 1.061 0 001.06 1.062h13.434a1.061 1.061 0 001.061-1.061V6.667H13.89z"/></symbol><symbol viewBox="0 0 36 36" id="burger" xmlns="http://www.w3.org/2000/svg"><path d="M32 29H4a1 1 0 010-2h28a1 1 0 010 2zm0-10H4a1 1 0 010-2h28a1 1 0 010 2zm0-10H4a1 1 0 010-2h28a1 1 0 110 2z"/></symbol><symbol viewBox="0 0 20 20" id="close" xmlns="http://www.w3.org/2000/svg"><path d="M10.784 10l4.606-4.606a.556.556 0 00-.784-.783l-4.605 4.606-4.606-4.612a.558.558 0 00-.789.79L9.217 10l-4.61 4.605a.556.556 0 10.783.784L10 10.783l4.606 4.606a.556.556 0 00.784-.784L10.784 10z"/></symbol><symbol viewBox="0 0 20 20" id="copy" xmlns="http://www.w3.org/2000/svg"><path d="M16.458 9.583a.625.625 0 01.62.54l.005.085v4.167a3.958 3.958 0 01-3.777 3.954l-.181.004h-6.25a1.876 1.876 0 01-1.769-1.25h8.019l.153-.004a2.709 2.709 0 002.55-2.55l.005-.154v-4.167a.625.625 0 01.625-.625zm-2.083-1.666a.625.625 0 01.619.54l.006.085v5.833a1.875 1.875 0 01-1.747 1.87l-.128.005H4.79a1.875 1.875 0 01-1.87-1.747l-.004-.128V8.542a.625.625 0 011.244-.085l.006.085v5.833c0 .317.235.578.54.62l.085.005h8.333a.625.625 0 00.619-.54l.006-.085V8.542a.625.625 0 01.625-.625zM5.18 5.18l3.332-3.33a.625.625 0 01.814-.06l.07.06 3.336 3.33a.625.625 0 01-.813.945l-.07-.06-2.267-2.263v8.077a.625.625 0 01-.54.62l-.085.005a.625.625 0 01-.619-.54l-.006-.085V3.797L6.066 6.064a.625.625 0 01-.814.06l-.07-.06a.625.625 0 01-.06-.814l.06-.07 3.331-3.33-3.332 3.33z"/></symbol><symbol viewBox="0 0 20 20" id="count-minus" xmlns="http://www.w3.org/2000/svg"><path d="M14.444 9.444H5.556a.556.556 0 100 1.112h8.888a.556.556 0 000-1.112z"/></symbol><symbol viewBox="0 0 32 32" id="count-plus" xmlns="http://www.w3.org/2000/svg"><path d="M22.667 15.444h-6.112v-6.11a.555.555 0 10-1.11 0v6.11H9.332a.555.555 0 00-.555.556.506.506 0 00.555.522h6.111v6.145a.556.556 0 101.111 0v-6.111h6.112a.555.555 0 100-1.112z"/></symbol><symbol viewBox="0 0 10 10" id="down" xmlns="http://www.w3.org/2000/svg"><path d="M8.542 3.329a.299.299 0 00-.418 0L5 6.374 1.876 3.33a.299.299 0 00-.481.093.284.284 0 00.063.314l3.324 3.239a.312.312 0 00.436 0l3.322-3.24a.284.284 0 000-.407z" fill-opacity=".8"/></symbol><symbol viewBox="0 0 20 20" id="filter" xmlns="http://www.w3.org/2000/svg"><path fill-rule="evenodd" clip-rule="evenodd" d="M6.19 4.31a.452.452 0 00-.452.452v1.905a.452.452 0 10.905 0V4.762a.452.452 0 00-.452-.452zm0-1a1.452 1.452 0 011.453 1.452v1.905a1.452 1.452 0 11-2.905 0V4.762A1.452 1.452 0 016.191 3.31z"/><path fill-rule="evenodd" clip-rule="evenodd" d="M6.643 5.714a.5.5 0 01.5-.5h10.476a.5.5 0 010 1H7.143a.5.5 0 01-.5-.5zm-4.763 0a.5.5 0 01.5-.5h2.858a.5.5 0 010 1H2.381a.5.5 0 01-.5-.5zm4.31 8.119a.453.453 0 00-.452.453v1.905a.452.452 0 00.905 0v-1.905a.452.452 0 00-.452-.453zm-1.026-.574a1.452 1.452 0 012.479 1.027v1.905a1.452 1.452 0 11-2.905 0v-1.905c0-.386.153-.755.426-1.027z"/><path fill-rule="evenodd" clip-rule="evenodd" d="M6.643 15.238a.5.5 0 01.5-.5h10.476a.5.5 0 010 1H7.143a.5.5 0 01-.5-.5zm-4.763 0a.5.5 0 01.5-.5h2.858a.5.5 0 010 1H2.381a.5.5 0 01-.5-.5zm11.93-6.167a.452.452 0 00-.453.453v1.905a.452.452 0 00.905 0V9.524a.453.453 0 00-.452-.453zm0-1a1.452 1.452 0 011.452 1.453v1.905a1.452 1.452 0 11-2.905 0V9.524A1.452 1.452 0 0113.81 8.07z"/><path fill-rule="evenodd" clip-rule="evenodd" d="M1.88 10.476a.5.5 0 01.5-.5h10.477a.5.5 0 110 1H2.381a.5.5 0 01-.5-.5zm12.382 0a.5.5 0 01.5-.5h2.857a.5.5 0 010 1h-2.857a.5.5 0 01-.5-.5z"/></symbol><symbol viewBox="0 0 20 20" id="heart" xmlns="http://www.w3.org/2000/svg"><path d="M10 18.017a.555.555 0 01-.34-.117c-3.088-2.4-5.216-4.467-6.705-6.506-1.9-2.605-2.333-5.01-1.289-7.15.745-1.527 2.884-2.777 5.384-2.05A5.483 5.483 0 0110 4.29a5.483 5.483 0 012.95-2.095c2.494-.716 4.639.523 5.383 2.05 1.045 2.14.611 4.545-1.289 7.15-1.489 2.04-3.617 4.106-6.705 6.506a.556.556 0 01-.34.117zM5.628 3.1a3.278 3.278 0 00-2.962 1.628c-.86 1.766-.472 3.733 1.19 6.005A31.741 31.741 0 0010 16.756a31.742 31.742 0 006.144-6.017c1.667-2.278 2.05-4.245 1.19-6.006-.556-1.11-2.223-1.994-4.079-1.472a4.444 4.444 0 00-2.744 2.333.556.556 0 01-1.028 0A4.406 4.406 0 006.74 3.261 4.061 4.061 0 005.628 3.1z"/></symbol><symbol viewBox="0 0 25 25" id="home" xmlns="http://www.w3.org/2000/svg"><path d="M23.41 12.007L12.993 1.59a.694.694 0 00-.979 0L1.598 12.007a.694.694 0 00.979.98L12.5 3.061l9.924 9.931a.695.695 0 00.98-.98l.006-.006z"/><path d="M19.445 22.222h-3.473v-6.944H9.029v6.944H5.556V12.5l-1.389 1.389v8.333a1.39 1.39 0 001.389 1.39h4.861v-6.945h4.167v6.944h4.86a1.39 1.39 0 001.39-1.389v-8.5l-1.39-1.389v9.89z"/></symbol><symbol viewBox="0 0 21 20" id="m-search" xmlns="http://www.w3.org/2000/svg"><g clip-path="url(#asclip0_274_230)"><path d="M9.872 2.806a6.084 6.084 0 11-6.078 6.083 6.111 6.111 0 016.078-6.083zm0-1.14a7.222 7.222 0 100 14.445 7.222 7.222 0 000-14.444zm10.373 16.828l-4.095-4.122-.789.784 4.095 4.122a.554.554 0 00.786.003.557.557 0 00.003-.787z"/></g><defs><clipPath id="asclip0_274_230"><rect x=".8" width="20" height="20" rx="10"/></clipPath></defs></symbol><symbol viewBox="0 0 20 20" id="plus" xmlns="http://www.w3.org/2000/svg"><path d="M16.667 9.444h-6.112v-6.11a.555.555 0 10-1.11 0v6.11H3.332a.556.556 0 00-.555.556.506.506 0 00.555.522h6.111v6.145a.556.556 0 101.111 0v-6.111h6.112a.555.555 0 100-1.111z"/></symbol><symbol viewBox="0 0 20 20" id="right" xmlns="http://www.w3.org/2000/svg"><path d="M6.657 2.916a.597.597 0 000 .835L12.75 10l-6.092 6.247a.597.597 0 00.187.963.57.57 0 00.628-.128l6.478-6.646a.625.625 0 000-.872L7.472 2.917a.569.569 0 00-.815 0z"/></symbol><symbol viewBox="0 0 20 20" id="search" xmlns="http://www.w3.org/2000/svg"><path d="M9.072 2.806a6.084 6.084 0 11-6.078 6.083 6.111 6.111 0 016.078-6.083zm0-1.14a7.222 7.222 0 100 14.445 7.222 7.222 0 000-14.444zm10.373 16.828l-4.095-4.122-.788.784 4.094 4.122a.554.554 0 00.786.003.557.557 0 00.003-.787z"/></symbol><symbol viewBox="0 0 21 18" id="social-1" xmlns="http://www.w3.org/2000/svg"><path d="M20.312 1.733l-3.074 14.459c-.232 1.02-.836 1.274-1.696.793l-4.684-3.442-2.26 2.168c-.25.25-.459.458-.941.458l.337-4.757 8.68-7.824c.378-.335-.081-.521-.586-.186l-10.732 6.74-4.62-1.443C-.27 8.387-.287 7.697.946 7.216L19.015.273c.837-.313 1.57.186 1.296 1.46z"/></symbol><symbol viewBox="0 0 21 21" id="social-2" xmlns="http://www.w3.org/2000/svg"><path d="M10.555 5.752c-.945 0-1.87.28-2.656.802a4.765 4.765 0 00-1.76 2.137 4.742 4.742 0 001.036 5.188 4.8 4.8 0 005.21 1.032 4.775 4.775 0 002.145-1.754 4.746 4.746 0 00.806-2.645 4.756 4.756 0 00-1.402-3.364 4.797 4.797 0 00-3.379-1.396zm0 8.279a3.544 3.544 0 01-1.963-.593 3.505 3.505 0 01-.535-5.414 3.538 3.538 0 013.85-.762 3.53 3.53 0 011.586 1.296 3.508 3.508 0 01-.44 4.441 3.545 3.545 0 01-2.498 1.032zM15.128.37H5.982a5.63 5.63 0 00-3.966 1.638A5.583 5.583 0 00.37 5.96v9.107a5.583 5.583 0 001.646 3.95 5.631 5.631 0 003.966 1.638h9.146a5.63 5.63 0 003.967-1.639 5.583 5.583 0 001.646-3.95V5.96a5.583 5.583 0 00-1.646-3.95A5.63 5.63 0 0015.128.371zm4.365 14.695a4.342 4.342 0 01-1.28 3.072 4.38 4.38 0 01-3.085 1.274H5.982a4.38 4.38 0 01-3.085-1.274 4.342 4.342 0 01-1.28-3.072V5.959a4.342 4.342 0 011.28-3.072 4.38 4.38 0 013.085-1.275h9.146a4.38 4.38 0 013.085 1.275 4.342 4.342 0 011.28 3.072v9.107zM17 5.13a1.032 1.032 0 01-.642.956 1.044 1.044 0 01-1.132-.224 1.033 1.033 0 01.735-1.767A1.04 1.04 0 0117 5.13z"/></symbol><symbol viewBox="0 0 24 21" id="social-3" xmlns="http://www.w3.org/2000/svg"><path d="M21.199 10.7h-1.085v7.526l-4.753-4.838-.91.927 4.668 4.759H3.104l4.52-4.76-.93-.913-4.662 4.91V6.926l8.027 8.131c.242.245.57.383.91.383.342 0 .67-.138.911-.383l4.301-4.358h-1.827l-3.384 3.425-8.092-8.197h9.525l.743-1.315H2.032a1.28 1.28 0 00-.913.385 1.325 1.325 0 00-.379.93v13.147c0 .348.136.683.379.93.242.246.57.384.913.384h18.082c.343 0 .671-.138.913-.385.243-.246.379-.58.379-.93v-8.387l-.207.013z"/><path d="M17.858 1.183l-3.94 6.797a.876.876 0 00.758 1.31h7.887a.885.885 0 00.754-.44.875.875 0 00.004-.87l-3.94-6.797a.88.88 0 00-1.2-.319.88.88 0 00-.323.319z"/></symbol><symbol viewBox="0 0 21 22" id="social-4" xmlns="http://www.w3.org/2000/svg"><path d="M18.259 21.654H2.98a2.412 2.412 0 01-1.8-.772 2.587 2.587 0 01-.746-1.864V3.196c0-.727.248-1.349.746-1.864A2.412 2.412 0 012.98.56h15.278a2.41 2.41 0 011.8.772c.497.515.746 1.137.746 1.864v15.822c0 .727-.249 1.349-.746 1.864a2.412 2.412 0 01-1.8.772zM6.8 8.47V6.492c0-.37-.11-.734-.328-1.091-.219-.357-.46-.611-.726-.763-.265-.15-.47-.157-.617-.02L3.677 6.142c-.398.412-.623.965-.676 1.659-.053.693.05 1.449.308 2.266.259.817.673 1.682 1.243 2.595a15.8 15.8 0 002.05 2.606 15.467 15.467 0 002.516 2.122c.882.59 1.717 1.023 2.506 1.298.79.275 1.519.385 2.189.33.67-.055 1.203-.289 1.601-.7l1.472-1.525c.133-.138.126-.347-.02-.629-.146-.281-.391-.535-.736-.762-.345-.226-.696-.34-1.054-.34h-1.91l-1.293.824c-.597-.164-1.333-.61-2.208-1.339a15.656 15.656 0 01-2.367-2.451c-.703-.907-1.134-1.669-1.293-2.287L6.8 8.47zm7.6 3.296l1.293.227c-.107-1.648-.723-3.056-1.85-4.223-1.128-1.168-2.48-1.806-4.059-1.916l.2 1.339c1.153.151 2.141.652 2.963 1.504a5.211 5.211 0 011.452 3.07zm-4.178-3.193l.239 1.483c.517.261.908.667 1.173 1.216l1.433.247a3.985 3.985 0 00-1.025-1.885 3.78 3.78 0 00-1.82-1.06zm-.875-5.377l.218 1.34a7.132 7.132 0 013.67 1.081 7.801 7.801 0 012.686 2.781 7.78 7.78 0 011.045 3.8l1.293.227c0-1.25-.236-2.444-.707-3.584-.47-1.14-1.104-2.122-1.9-2.946a8.94 8.94 0 00-2.844-1.967 8.456 8.456 0 00-3.461-.732z"/></symbol><symbol viewBox="0 0 17 17" id="sorting" xmlns="http://www.w3.org/2000/svg"><g clip-path="url(#baclip0_285_195)"><path fill-rule="evenodd" clip-rule="evenodd" d="M12.219 15.938a.531.531 0 00.531-.532V2.876l3.343 3.344a.532.532 0 00.752-.752l-4.25-4.25a.531.531 0 00-.752 0l-4.25 4.25a.532.532 0 10.752.752l3.343-3.344v12.53a.532.532 0 00.53.531zM4.78 1.062a.531.531 0 01.532.532v12.53l3.342-3.344a.532.532 0 11.753.752l-4.25 4.25a.531.531 0 01-.753 0l-4.25-4.25a.532.532 0 11.753-.752l3.342 3.344V1.594a.531.531 0 01.531-.532z"/></g><defs><clipPath id="baclip0_285_195"><path d="M0 0h17v17H0z"/></clipPath></defs></symbol><symbol viewBox="0 0 10 10" id="star" xmlns="http://www.w3.org/2000/svg"><path d="M9.445 4.661a.617.617 0 00-.359-1.111l-2.5-.095a.064.064 0 01-.055-.041L5.667 1.08a.617.617 0 00-1.158 0l-.862 2.342a.064.064 0 01-.055.042l-2.5.094A.617.617 0 00.734 4.67l1.96 1.542a.064.064 0 01.023.067L2.042 8.67a.617.617 0 00.939.68l2.072-1.388a.061.061 0 01.07 0L7.194 9.35a.611.611 0 00.939-.667l-.68-2.4a.061.061 0 01.021-.066l1.97-1.556z"/></symbol><symbol viewBox="0 0 20 20" id="trash" xmlns="http://www.w3.org/2000/svg"><path d="M15.078 18.889H4.922a1.629 1.629 0 01-1.589-1.667V6.24h1.112v10.983a.517.517 0 00.477.556h10.156a.515.515 0 00.478-.556V6.24h1.11v10.983a1.627 1.627 0 01-1.588 1.667zM17.1 5H2.778a.556.556 0 010-1.111H17.1A.556.556 0 1117.1 5z"/><path d="M11.667 7.222h1.111v8.334h-1.111V7.222zm-4.444 0h1.11v8.334h-1.11V7.222zm5.555-3.966h-1.055V2.222H8.278v1.034H7.223V2.222a1.111 1.111 0 011.055-1.11h3.445a1.111 1.111 0 011.055 1.11v1.034z"/></symbol><symbol viewBox="0 0 20 20" id="up" xmlns="http://www.w3.org/2000/svg"><path d="M5 6l5 5 5-5 2 1-7 7-7-7 2-1z"/></symbol><symbol viewBox="0 0 20 20" id="user" xmlns="http://www.w3.org/2000/svg"><path d="M10 9.444a3.89 3.89 0 100-7.778 3.89 3.89 0 000 7.778zm0-6.666a2.778 2.778 0 110 5.556 2.778 2.778 0 010-5.556zm6.927 10.761a9.532 9.532 0 00-13.85 0c-.193.206-.3.478-.3.761v2.922a1.111 1.111 0 001.111 1.111h12.223a1.111 1.111 0 001.11-1.11V14.3a1.111 1.111 0 00-.294-.761zm-.816 3.683H3.888v-2.928a8.43 8.43 0 0112.223 0v2.928z"/></symbol></svg>