<svg width="30" height="30" fill="none" xmlns="http://www.w3.org/2000/svg"><path d="M12.5 6.667H20v1.666h-7.5V6.666zm0 3.333H20v1.667h-7.5V10zm0 3.333H20V15h-7.5v-1.667zm0 3.334H20v1.667h-7.5v-1.667zm0 3.333H20v1.667h-7.5V20zM9.167 6.667h1.667v1.666H9.167V6.666zm0 3.333h1.667v1.667H9.167V10zm0 3.333h1.667V15H9.167v-1.667zm0 3.334h1.667v1.667H9.167v-1.667zm0 3.333h1.667v1.667H9.167V20z" fill="#514A7E"/><path d="M23.333 1.667H6.667A1.667 1.667 0 005 3.334v23.333a1.667 1.667 0 001.667 1.667h16.666A1.666 1.666 0 0025 26.667V3.334a1.667 1.667 0 00-1.667-1.667zm0 25H6.667V3.334h16.666v23.333z" fill="#514A7E"/></svg>