<svg width="30" height="30" fill="none" xmlns="http://www.w3.org/2000/svg"><path d="M18 24.167a.833.833 0 00-.833-.834h-5a.833.833 0 100 1.667h5a.833.833 0 00.834-.833zM18.784 20h-5a.833.833 0 000 1.667h5a.833.833 0 000-1.667zm-.451 6.666h-5a.833.833 0 000 1.667h5a.833.833 0 000-1.666zm8.917 0h-5.834a.833.833 0 000 1.667h5.834a.833.833 0 100-1.666zm.833-3.332h-5.834a.833.833 0 000 1.666h5.834a.833.833 0 100-1.666z" fill="#514A7E"/><path d="M28.116 21.667a23.332 23.332 0 00-2.35-8.433A16.867 16.867 0 0020.5 7.259l2-4.409a.833.833 0 00-.059-.833.833.833 0 00-.666-.35H8.165a.833.833 0 00-.758 1.183L9.45 7.275a16.942 16.942 0 00-5.234 5.959c-1.791 3.333-2.35 7.408-2.5 10.233a3 3 0 00.834 2.258 3.158 3.158 0 002.283.892H10V25H4.766a1.4 1.4 0 01-1.304-.906 1.35 1.35 0 01-.08-.552c.118-2.175.576-6.317 2.3-9.542A15 15 0 0110.9 8.334h.834a25.687 25.687 0 00-1.559 2.433A18.988 18.988 0 008.95 13.55l1.141.767c.338-.995.753-1.962 1.242-2.892a24.248 24.248 0 012.041-3.091h.834a17.877 17.877 0 011.175 4.166c.18 1.063.27 2.14.267 3.217l1.316-.925a20.108 20.108 0 00-.267-2.5 20.681 20.681 0 00-1.066-3.958h.65l.758-1.667h-6.033L9.466 3.334h11.008l-2.083 4.558c.357.191.7.409 1.025.65a15.525 15.525 0 014.883 5.475 22.158 22.158 0 012.142 7.65h1.675z" fill="#514A7E"/></svg>