<svg width="30" height="30" fill="none" xmlns="http://www.w3.org/2000/svg"><path d="M15.083 9.167A5.797 5.797 0 009.25 15a5.797 5.797 0 005.833 5.834A5.798 5.798 0 0020.917 15a5.797 5.797 0 00-5.834-5.833zm0 10A4.126 4.126 0 0110.917 15a4.126 4.126 0 014.166-4.166A4.126 4.126 0 0119.25 15a4.126 4.126 0 01-4.167 4.167z" fill="#514A7E"/><path d="M27.334 12.25L25 11.5l-.5-1.25 1.167-2.166c.25-.5.167-1.167-.25-1.584l-2-2a1.401 1.401 0 00-1.583-.25l-2.167 1.167-1.25-.5-.75-2.333c-.167-.5-.667-.917-1.25-.917h-2.833c-.584 0-1.084.417-1.167 1L11.667 5c-.5.084-.917.25-1.333.5L8.167 4.334a1.401 1.401 0 00-1.583.25l-2 2a1.401 1.401 0 00-.25 1.583l1.083 2.083c-.167.417-.333.917-.5 1.334l-2.333.75c-.5.166-.917.666-.917 1.25v2.833c0 .583.417 1.083 1 1.25l2.333.75.5 1.25-1.166 2.167a1.4 1.4 0 00.25 1.583l2 2c.416.417 1.083.5 1.583.25l2.167-1.167 1.25.5.75 2.417c.166.5.666.917 1.25.917h2.833c.583 0 1.083-.417 1.25-.917l.75-2.417 1.25-.5 2.167 1.167a1.4 1.4 0 001.583-.25l2-2a1.4 1.4 0 00.25-1.583L24.5 19.667l.5-1.25 2.417-.75c.5-.167.917-.667.917-1.25v-2.833c0-.584-.417-1.167-1-1.334zm-.667 3.917l-3 .917-.083.416-.75 1.75-.25.417 1.5 2.75-1.667 1.667-2.75-1.5-.417.25a7.912 7.912 0 01-1.75.75l-.416.083-.917 3h-2.333l-.917-3-.417-.083-1.75-.75-.416-.25-2.75 1.5-1.667-1.667 1.5-2.75-.25-.417a7.91 7.91 0 01-.75-1.75l-.083-.416-3-.917v-2.333L6.167 13l.167-.416c.166-.667.416-1.25.75-1.834l.25-.416-1.417-2.75 1.667-1.667 2.666 1.5.417-.25a7.074 7.074 0 011.833-.75l.417-.167.917-2.916h2.333l.917 2.916.416.167a7.91 7.91 0 011.75.75l.417.25 2.75-1.5 1.667 1.667-1.5 2.75.25.416c.333.584.583 1.167.75 1.75l.083.417 3 .917v2.333z" fill="#514A7E"/></svg>