<svg width="30" height="30" fill="none" xmlns="http://www.w3.org/2000/svg"><path d="M15.35 13.591a4.75 4.75 0 114.8-4.75 4.783 4.783 0 01-4.8 4.75zm0-7.833a3.084 3.084 0 103.133 3.084 3.117 3.117 0 00-3.134-3.084z" fill="#514A7E"/><path d="M15.35 13.591a4.75 4.75 0 114.8-4.75 4.783 4.783 0 01-4.8 4.75zm0-7.833a3.084 3.084 0 103.133 3.084 3.117 3.117 0 00-3.134-3.084zm2.908 8.95a17.167 17.167 0 00-10.833 1.667 1.475 1.475 0 00-.758 1.333v2.967a.833.833 0 001.666 0v-2.858a15.767 15.767 0 0110-1.4l-.075-1.709z" fill="#514A7E"/><path d="M27.5 18.333h-5.584V17.1a.834.834 0 00-1.666 0v1.233h-6.084a.834.834 0 00-.833.834V27.5a.833.833 0 00.833.833H27.5a.833.833 0 00.833-.833v-8.333a.833.833 0 00-.833-.834zm-.834 8.334H15V20h5.25v.342a.833.833 0 001.666 0V20h4.75v6.667z" fill="#514A7E"/><path d="M18.176 22.85h4.966v1.167h-4.966V22.85zM9.034 10.2a15 15 0 00-6.625 1.666 1.391 1.391 0 00-.742 1.225v2.584a.833.833 0 001.667 0v-2.417a13.333 13.333 0 016.316-1.392 6.067 6.067 0 01-.616-1.666zm18.557 1.659a14.832 14.832 0 00-5.933-1.667 6.217 6.217 0 01-.608 1.667c1.952.046 3.87.524 5.616 1.4v2.416a.834.834 0 001.667 0v-2.583a1.392 1.392 0 00-.741-1.233zM8.884 8.841v-.558a2.558 2.558 0 01.45-5.092 2.625 2.625 0 011.833.742c.434-.357.91-.66 1.417-.9a4.275 4.275 0 00-7.5 2.725 4.25 4.25 0 003.917 4.167 6.167 6.167 0 01-.117-1.084zm11.757-7.316a4.308 4.308 0 00-3.075 1.292 6.557 6.557 0 011.584.833 2.617 2.617 0 014.108 2.1 2.576 2.576 0 01-1.492 2.308 5.96 5.96 0 01-.033 1.775 4.25 4.25 0 003.192-4.083 4.266 4.266 0 00-4.284-4.225z" fill="#514A7E"/></svg>