<svg width="20" height="21" fill="none" xmlns="http://www.w3.org/2000/svg"><path d="M15 8.8h-1.25c0-.5-.198-.978-.55-1.331a1.873 1.873 0 00-1.325-.553V5.661a3.122 3.122 0 012.209.92A3.15 3.15 0 0115 8.8z" fill="#FFFDF5"/><path d="M17.5 8.8h-1.25a4.408 4.408 0 00-1.283-3.106 4.37 4.37 0 00-3.092-1.288V3.15a5.619 5.619 0 013.976 1.657A5.668 5.668 0 0117.5 8.799zm-1.25 10.043h-.107C3.863 18.133 2.118 7.726 1.875 4.55c-.038-.498.122-.99.446-1.37a1.872 1.872 0 011.429-.657h3.293a1.246 1.246 0 011.163.79l.95 2.348a1.26 1.26 0 01-.275 1.356L7.55 8.367a5.884 5.884 0 001.62 3.135 5.842 5.842 0 003.117 1.635l1.356-1.35A1.248 1.248 0 0115 11.53l2.356.948a1.25 1.25 0 01.769 1.167v3.314c0 .5-.198.979-.55 1.332a1.87 1.87 0 01-1.325.552zM3.75 3.778a.623.623 0 00-.627.626c0 .018 0 .035.002.052.287 3.716 2.13 12.503 13.087 13.131a.624.624 0 00.661-.589l.002-.039v-3.314l-2.357-.947-1.793 1.788-.3-.037C6.987 13.765 6.25 8.304 6.25 8.247l-.038-.3 1.775-1.802-.937-2.367h-3.3z" fill="#FFFDF5"/></svg>