<svg width="20" height="21" fill="none" xmlns="http://www.w3.org/2000/svg"><path d="M10 19.47a8.723 8.723 0 01-4.861-1.48 8.78 8.78 0 01-3.223-3.944 8.822 8.822 0 01-.498-5.077 8.8 8.8 0 012.395-4.5 8.739 8.739 0 014.48-2.404 8.715 8.715 0 015.056.5A8.759 8.759 0 0117.274 5.8a8.815 8.815 0 01-1.088 11.096A8.732 8.732 0 0110 19.471zm0-16.319a7.477 7.477 0 00-4.167 1.27A7.525 7.525 0 003.071 7.8a7.562 7.562 0 001.626 8.208 7.47 7.47 0 008.173 1.633 7.506 7.506 0 003.366-2.774 7.555 7.555 0 00-.933-9.51A7.484 7.484 0 0010 3.15z" fill="#FFFDF5"/><path d="M12.869 14.45l-3.494-3.51V5.035h1.25v5.386l3.125 3.144-.881.885z" fill="#FFFDF5"/></svg>